<mxfile host="app.diagrams.net" agent="Mozilla/5.0 (Macintosh; Intel Mac OS X 10_15_7) AppleWebKit/605.1.15 (KHTML, like Gecko) Version/18.6 Safari/605.1.15" version="27.1.1">
  <diagram name="Страница — 1" id="FRYrV5khxh3fjMxdv-Jj">
    <mxGraphModel dx="1148" dy="789" grid="1" gridSize="10" guides="1" tooltips="1" connect="1" arrows="1" fold="1" page="1" pageScale="1" pageWidth="827" pageHeight="1169" math="0" shadow="0">
      <root>
        <mxCell id="0" />
        <mxCell id="1" parent="0" />
        <mxCell id="THDRsZz46mD7L3RsJUdw-34" value="" style="rounded=0;whiteSpace=wrap;html=1;strokeWidth=2;" vertex="1" parent="1">
          <mxGeometry x="300" y="100" width="440" height="400" as="geometry" />
        </mxCell>
        <mxCell id="THDRsZz46mD7L3RsJUdw-14" value="" style="rounded=0;whiteSpace=wrap;html=1;strokeWidth=2;" vertex="1" parent="1">
          <mxGeometry x="320" y="130" width="160" height="100" as="geometry" />
        </mxCell>
        <mxCell id="THDRsZz46mD7L3RsJUdw-1" value="Электрическое питание" style="rounded=0;whiteSpace=wrap;html=1;" vertex="1" parent="1">
          <mxGeometry x="40" y="215" width="140" height="40" as="geometry" />
        </mxCell>
        <mxCell id="THDRsZz46mD7L3RsJUdw-5" value="Wi-Fi роутер" style="rounded=0;whiteSpace=wrap;html=1;" vertex="1" parent="1">
          <mxGeometry x="40" y="160" width="140" height="40" as="geometry" />
        </mxCell>
        <mxCell id="THDRsZz46mD7L3RsJUdw-52" style="edgeStyle=orthogonalEdgeStyle;rounded=0;orthogonalLoop=1;jettySize=auto;html=1;entryX=0;entryY=0.5;entryDx=0;entryDy=0;" edge="1" parent="1" source="THDRsZz46mD7L3RsJUdw-6" target="THDRsZz46mD7L3RsJUdw-16">
          <mxGeometry relative="1" as="geometry" />
        </mxCell>
        <mxCell id="THDRsZz46mD7L3RsJUdw-6" value="Внешние устройства" style="rounded=0;whiteSpace=wrap;html=1;" vertex="1" parent="1">
          <mxGeometry x="40" y="270" width="140" height="40" as="geometry" />
        </mxCell>
        <mxCell id="THDRsZz46mD7L3RsJUdw-8" value="Внешние датчики" style="rounded=0;whiteSpace=wrap;html=1;" vertex="1" parent="1">
          <mxGeometry x="40" y="330" width="140" height="40" as="geometry" />
        </mxCell>
        <mxCell id="THDRsZz46mD7L3RsJUdw-42" style="edgeStyle=orthogonalEdgeStyle;rounded=0;orthogonalLoop=1;jettySize=auto;html=1;exitX=0.5;exitY=1;exitDx=0;exitDy=0;strokeWidth=2;endArrow=none;startFill=0;" edge="1" parent="1" source="THDRsZz46mD7L3RsJUdw-11">
          <mxGeometry relative="1" as="geometry">
            <mxPoint x="510" y="255" as="targetPoint" />
            <mxPoint x="400" y="270" as="sourcePoint" />
            <Array as="points">
              <mxPoint x="400" y="255" />
            </Array>
          </mxGeometry>
        </mxCell>
        <mxCell id="THDRsZz46mD7L3RsJUdw-47" style="edgeStyle=orthogonalEdgeStyle;rounded=0;orthogonalLoop=1;jettySize=auto;html=1;entryX=0;entryY=0.5;entryDx=0;entryDy=0;" edge="1" parent="1" source="THDRsZz46mD7L3RsJUdw-11" target="THDRsZz46mD7L3RsJUdw-29">
          <mxGeometry relative="1" as="geometry">
            <Array as="points">
              <mxPoint x="490" y="190" />
              <mxPoint x="490" y="70" />
              <mxPoint x="860" y="70" />
              <mxPoint x="860" y="180" />
            </Array>
          </mxGeometry>
        </mxCell>
        <mxCell id="THDRsZz46mD7L3RsJUdw-11" value="Телевизор/проектор" style="rounded=0;whiteSpace=wrap;html=1;" vertex="1" parent="1">
          <mxGeometry x="340" y="175" width="120" height="30" as="geometry" />
        </mxCell>
        <mxCell id="THDRsZz46mD7L3RsJUdw-12" value="&lt;font style=&quot;font-size: 15px;&quot;&gt;Видеосистема&lt;/font&gt;" style="text;html=1;align=center;verticalAlign=middle;resizable=0;points=[];autosize=1;strokeColor=none;fillColor=none;" vertex="1" parent="1">
          <mxGeometry x="335" y="140" width="130" height="30" as="geometry" />
        </mxCell>
        <mxCell id="THDRsZz46mD7L3RsJUdw-15" value="" style="rounded=0;whiteSpace=wrap;html=1;strokeWidth=2;" vertex="1" parent="1">
          <mxGeometry x="320" y="340" width="160" height="140" as="geometry" />
        </mxCell>
        <mxCell id="THDRsZz46mD7L3RsJUdw-36" style="edgeStyle=orthogonalEdgeStyle;rounded=0;orthogonalLoop=1;jettySize=auto;html=1;exitX=0.5;exitY=1;exitDx=0;exitDy=0;entryX=0.5;entryY=0;entryDx=0;entryDy=0;endArrow=none;startFill=0;strokeWidth=2;" edge="1" parent="1" source="THDRsZz46mD7L3RsJUdw-16" target="THDRsZz46mD7L3RsJUdw-18">
          <mxGeometry relative="1" as="geometry" />
        </mxCell>
        <mxCell id="THDRsZz46mD7L3RsJUdw-16" value="AV-ресивер" style="rounded=0;whiteSpace=wrap;html=1;" vertex="1" parent="1">
          <mxGeometry x="340" y="390" width="120" height="30" as="geometry" />
        </mxCell>
        <mxCell id="THDRsZz46mD7L3RsJUdw-17" value="&lt;font style=&quot;font-size: 15px;&quot;&gt;Аудиосистема&lt;/font&gt;" style="text;html=1;align=center;verticalAlign=middle;resizable=0;points=[];autosize=1;strokeColor=none;fillColor=none;" vertex="1" parent="1">
          <mxGeometry x="335" y="350" width="130" height="30" as="geometry" />
        </mxCell>
        <mxCell id="THDRsZz46mD7L3RsJUdw-45" style="edgeStyle=orthogonalEdgeStyle;rounded=0;orthogonalLoop=1;jettySize=auto;html=1;entryX=0;entryY=0.5;entryDx=0;entryDy=0;" edge="1" parent="1" source="THDRsZz46mD7L3RsJUdw-18" target="THDRsZz46mD7L3RsJUdw-30">
          <mxGeometry relative="1" as="geometry">
            <Array as="points">
              <mxPoint x="500" y="445" />
              <mxPoint x="500" y="550" />
              <mxPoint x="830" y="550" />
              <mxPoint x="830" y="420" />
            </Array>
          </mxGeometry>
        </mxCell>
        <mxCell id="THDRsZz46mD7L3RsJUdw-18" value="Колонки" style="rounded=0;whiteSpace=wrap;html=1;" vertex="1" parent="1">
          <mxGeometry x="340" y="430" width="120" height="30" as="geometry" />
        </mxCell>
        <mxCell id="THDRsZz46mD7L3RsJUdw-19" value="" style="rounded=0;whiteSpace=wrap;html=1;strokeWidth=2;" vertex="1" parent="1">
          <mxGeometry x="560" y="120" width="160" height="190" as="geometry" />
        </mxCell>
        <mxCell id="THDRsZz46mD7L3RsJUdw-40" style="edgeStyle=orthogonalEdgeStyle;rounded=0;orthogonalLoop=1;jettySize=auto;html=1;exitX=0;exitY=0.5;exitDx=0;exitDy=0;strokeWidth=2;endArrow=none;startFill=0;" edge="1" parent="1" source="THDRsZz46mD7L3RsJUdw-20">
          <mxGeometry relative="1" as="geometry">
            <mxPoint x="510" y="237.2" as="targetPoint" />
          </mxGeometry>
        </mxCell>
        <mxCell id="THDRsZz46mD7L3RsJUdw-20" value="Стриминговое устройство" style="rounded=0;whiteSpace=wrap;html=1;" vertex="1" parent="1">
          <mxGeometry x="580" y="170" width="120" height="40" as="geometry" />
        </mxCell>
        <mxCell id="THDRsZz46mD7L3RsJUdw-39" style="edgeStyle=orthogonalEdgeStyle;rounded=0;orthogonalLoop=1;jettySize=auto;html=1;strokeWidth=2;endArrow=none;startFill=0;" edge="1" parent="1" source="THDRsZz46mD7L3RsJUdw-22">
          <mxGeometry relative="1" as="geometry">
            <mxPoint x="510" y="280" as="targetPoint" />
            <Array as="points">
              <mxPoint x="510" y="235" />
            </Array>
          </mxGeometry>
        </mxCell>
        <mxCell id="THDRsZz46mD7L3RsJUdw-22" value="Плеер дисков" style="rounded=0;whiteSpace=wrap;html=1;" vertex="1" parent="1">
          <mxGeometry x="580" y="220" width="120" height="30" as="geometry" />
        </mxCell>
        <mxCell id="THDRsZz46mD7L3RsJUdw-38" style="edgeStyle=orthogonalEdgeStyle;rounded=0;orthogonalLoop=1;jettySize=auto;html=1;strokeWidth=2;endArrow=none;startFill=0;" edge="1" parent="1" source="THDRsZz46mD7L3RsJUdw-23">
          <mxGeometry relative="1" as="geometry">
            <mxPoint x="510" y="405" as="targetPoint" />
            <Array as="points">
              <mxPoint x="510" y="275" />
            </Array>
          </mxGeometry>
        </mxCell>
        <mxCell id="THDRsZz46mD7L3RsJUdw-23" value="Игровая консоль" style="rounded=0;whiteSpace=wrap;html=1;" vertex="1" parent="1">
          <mxGeometry x="580" y="260" width="120" height="30" as="geometry" />
        </mxCell>
        <mxCell id="THDRsZz46mD7L3RsJUdw-24" value="" style="rounded=0;whiteSpace=wrap;html=1;strokeWidth=2;" vertex="1" parent="1">
          <mxGeometry x="560" y="340" width="160" height="140" as="geometry" />
        </mxCell>
        <mxCell id="THDRsZz46mD7L3RsJUdw-37" style="edgeStyle=orthogonalEdgeStyle;rounded=0;orthogonalLoop=1;jettySize=auto;html=1;entryX=1;entryY=0.5;entryDx=0;entryDy=0;endArrow=none;startFill=0;strokeWidth=2;" edge="1" parent="1" source="THDRsZz46mD7L3RsJUdw-25" target="THDRsZz46mD7L3RsJUdw-16">
          <mxGeometry relative="1" as="geometry" />
        </mxCell>
        <mxCell id="THDRsZz46mD7L3RsJUdw-25" value="Пульт ДУ" style="rounded=0;whiteSpace=wrap;html=1;" vertex="1" parent="1">
          <mxGeometry x="580" y="390" width="120" height="30" as="geometry" />
        </mxCell>
        <mxCell id="THDRsZz46mD7L3RsJUdw-26" value="&lt;font style=&quot;font-size: 15px;&quot;&gt;Подсистема&amp;nbsp;&lt;/font&gt;&lt;div&gt;&lt;font style=&quot;font-size: 15px;&quot;&gt;управления&lt;/font&gt;&lt;/div&gt;" style="text;html=1;align=center;verticalAlign=middle;resizable=0;points=[];autosize=1;strokeColor=none;fillColor=none;" vertex="1" parent="1">
          <mxGeometry x="585" y="340" width="110" height="50" as="geometry" />
        </mxCell>
        <mxCell id="THDRsZz46mD7L3RsJUdw-43" style="edgeStyle=orthogonalEdgeStyle;rounded=0;orthogonalLoop=1;jettySize=auto;html=1;entryX=0.5;entryY=1;entryDx=0;entryDy=0;strokeWidth=2;endArrow=none;startFill=0;" edge="1" parent="1" source="THDRsZz46mD7L3RsJUdw-27" target="THDRsZz46mD7L3RsJUdw-25">
          <mxGeometry relative="1" as="geometry">
            <Array as="points">
              <mxPoint x="640" y="425" />
              <mxPoint x="640" y="425" />
            </Array>
          </mxGeometry>
        </mxCell>
        <mxCell id="THDRsZz46mD7L3RsJUdw-48" style="edgeStyle=orthogonalEdgeStyle;rounded=0;orthogonalLoop=1;jettySize=auto;html=1;entryX=0;entryY=0.5;entryDx=0;entryDy=0;" edge="1" parent="1" source="THDRsZz46mD7L3RsJUdw-27" target="THDRsZz46mD7L3RsJUdw-31">
          <mxGeometry relative="1" as="geometry" />
        </mxCell>
        <mxCell id="THDRsZz46mD7L3RsJUdw-27" value="Смарт-хаб" style="rounded=0;whiteSpace=wrap;html=1;" vertex="1" parent="1">
          <mxGeometry x="580" y="430" width="120" height="30" as="geometry" />
        </mxCell>
        <mxCell id="THDRsZz46mD7L3RsJUdw-29" value="Видеоизображение" style="rounded=0;whiteSpace=wrap;html=1;" vertex="1" parent="1">
          <mxGeometry x="890" y="160" width="140" height="40" as="geometry" />
        </mxCell>
        <mxCell id="THDRsZz46mD7L3RsJUdw-30" value="Звук" style="rounded=0;whiteSpace=wrap;html=1;" vertex="1" parent="1">
          <mxGeometry x="890" y="400" width="140" height="40" as="geometry" />
        </mxCell>
        <mxCell id="THDRsZz46mD7L3RsJUdw-31" value="Тактильные эффекты" style="rounded=0;whiteSpace=wrap;html=1;" vertex="1" parent="1">
          <mxGeometry x="890" y="220" width="140" height="40" as="geometry" />
        </mxCell>
        <mxCell id="THDRsZz46mD7L3RsJUdw-32" value="Интеграция с умным домом" style="rounded=0;whiteSpace=wrap;html=1;" vertex="1" parent="1">
          <mxGeometry x="890" y="280" width="140" height="40" as="geometry" />
        </mxCell>
        <mxCell id="THDRsZz46mD7L3RsJUdw-33" value="Внешние датчики" style="rounded=0;whiteSpace=wrap;html=1;" vertex="1" parent="1">
          <mxGeometry x="890" y="340" width="140" height="40" as="geometry" />
        </mxCell>
        <mxCell id="THDRsZz46mD7L3RsJUdw-44" style="edgeStyle=orthogonalEdgeStyle;rounded=0;orthogonalLoop=1;jettySize=auto;html=1;entryX=0.5;entryY=0;entryDx=0;entryDy=0;" edge="1" parent="1" source="THDRsZz46mD7L3RsJUdw-5" target="THDRsZz46mD7L3RsJUdw-20">
          <mxGeometry relative="1" as="geometry">
            <mxPoint x="634" y="58" as="targetPoint" />
            <Array as="points">
              <mxPoint x="255" y="180" />
              <mxPoint x="255" y="34" />
              <mxPoint x="525" y="34" />
              <mxPoint x="525" y="155" />
              <mxPoint x="640" y="155" />
            </Array>
          </mxGeometry>
        </mxCell>
        <mxCell id="THDRsZz46mD7L3RsJUdw-21" value="&lt;font style=&quot;font-size: 15px;&quot;&gt;Источники контента&lt;/font&gt;" style="text;html=1;align=center;verticalAlign=middle;resizable=0;points=[];autosize=1;strokeColor=none;fillColor=none;" vertex="1" parent="1">
          <mxGeometry x="555" y="130" width="170" height="30" as="geometry" />
        </mxCell>
        <mxCell id="THDRsZz46mD7L3RsJUdw-49" value="" style="endArrow=classic;html=1;rounded=0;entryX=0;entryY=0.5;entryDx=0;entryDy=0;" edge="1" parent="1" target="THDRsZz46mD7L3RsJUdw-32">
          <mxGeometry width="50" height="50" relative="1" as="geometry">
            <mxPoint x="795" y="300" as="sourcePoint" />
            <mxPoint x="610" y="280" as="targetPoint" />
          </mxGeometry>
        </mxCell>
        <mxCell id="THDRsZz46mD7L3RsJUdw-50" value="" style="endArrow=classic;html=1;rounded=0;entryX=0;entryY=0.5;entryDx=0;entryDy=0;" edge="1" parent="1">
          <mxGeometry width="50" height="50" relative="1" as="geometry">
            <mxPoint x="795" y="359.58" as="sourcePoint" />
            <mxPoint x="890" y="359.58" as="targetPoint" />
          </mxGeometry>
        </mxCell>
        <mxCell id="THDRsZz46mD7L3RsJUdw-51" style="edgeStyle=orthogonalEdgeStyle;rounded=0;orthogonalLoop=1;jettySize=auto;html=1;entryX=-0.002;entryY=0.337;entryDx=0;entryDy=0;entryPerimeter=0;" edge="1" parent="1" source="THDRsZz46mD7L3RsJUdw-1" target="THDRsZz46mD7L3RsJUdw-34">
          <mxGeometry relative="1" as="geometry" />
        </mxCell>
        <mxCell id="THDRsZz46mD7L3RsJUdw-53" style="edgeStyle=orthogonalEdgeStyle;rounded=0;orthogonalLoop=1;jettySize=auto;html=1;entryX=0.5;entryY=1;entryDx=0;entryDy=0;" edge="1" parent="1" source="THDRsZz46mD7L3RsJUdw-8" target="THDRsZz46mD7L3RsJUdw-27">
          <mxGeometry relative="1" as="geometry">
            <Array as="points">
              <mxPoint x="200" y="350" />
              <mxPoint x="200" y="580" />
              <mxPoint x="640" y="580" />
            </Array>
          </mxGeometry>
        </mxCell>
      </root>
    </mxGraphModel>
  </diagram>
</mxfile>
